<?xml version='1.0' encoding='utf-8'?>
<mxGraphModel dx="1482" dy="836" grid="1" gridSize="10" guides="1" tooltips="1" connect="1" arrows="1" fold="1" page="1" pageScale="1" pageWidth="827" pageHeight="1169" math="0" shadow="0"><root><mxCell id="0" /><mxCell id="1" parent="0" /><mxCell id="2" value="生产服务器&#10;MySQL&#10;MySQL 备份&#10;Filebeat&#10;Cron&#10;RAID 5&#10;邮件告警" style="rounded=1;whiteSpace=wrap;html=1;fillColor=#D9EAD3" vertex="1" parent="1"><mxGeometry x="100" y="100" width="180" height="120" as_="geometry" /></mxCell><mxCell id="3" value="收集服务器&#10;Logstash&#10;Elasticsearch&#10;SCP&#10;Kibana&#10;RAID 5" style="rounded=1;whiteSpace=wrap;html=1;fillColor=#D9EAD3" vertex="1" parent="1"><mxGeometry x="400" y="100" width="180" height="120" as_="geometry" /></mxCell><mxCell id="4" value="备份服务器&#10;RAID 5&#10;接收 MySQL 备份&#10;接收日志备份&#10;故障恢复&#10;邮件告警" style="rounded=1;whiteSpace=wrap;html=1;fillColor=#D9EAD3" vertex="1" parent="1"><mxGeometry x="700" y="100" width="180" height="120" as_="geometry" /></mxCell><mxCell id="5" value="日志传输" style="edgeStyle=elbowEdgeStyle;rounded=1;html=1;strokeColor=#000000" edge="1" parent="1" source="2" target="3"><mxGeometry relative="1" as_="geometry" /></mxCell><mxCell id="6" value="MySQL 备份" style="edgeStyle=elbowEdgeStyle;rounded=1;html=1;strokeColor=#000000" edge="1" parent="1" source="2" target="4"><mxGeometry relative="1" as_="geometry" /></mxCell><mxCell id="7" value="日志备份" style="edgeStyle=elbowEdgeStyle;rounded=1;html=1;strokeColor=#000000" edge="1" parent="1" source="3" target="4"><mxGeometry relative="1" as_="geometry" /></mxCell><mxCell id="8" value="故障恢复" style="edgeStyle=elbowEdgeStyle;rounded=1;html=1;strokeColor=#000000" edge="1" parent="1" source="4" target="2"><mxGeometry relative="1" as_="geometry" /></mxCell><mxCell id="9" value="故障恢复" style="edgeStyle=elbowEdgeStyle;rounded=1;html=1;strokeColor=#000000" edge="1" parent="1" source="4" target="3"><mxGeometry relative="1" as_="geometry" /></mxCell></root></mxGraphModel>